<?xml version="1.0" encoding="UTF-8"?>
<svg xmlns="http://www.w3.org/2000/svg" xmlns:xlink="http://www.w3.org/1999/xlink" width="361pt" height="360pt" viewBox="0 0 361 360" version="1.1">
<g id="surface4">
<path style="fill-rule:nonzero;fill:rgb(99.998474%,99.998474%,99.998474%);fill-opacity:1;stroke-width:0.03;stroke-linecap:butt;stroke-linejoin:miter;stroke:rgb(99.998474%,99.998474%,99.998474%);stroke-opacity:1;stroke-miterlimit:10;" d="M 74 372 L 434 372 L 434 13 L 74 13 Z " transform="matrix(1,0,0,1,-74,-13)"/>
<path style=" stroke:none;fill-rule:evenodd;fill:rgb(0%,0%,0%);fill-opacity:1;" d="M 125.5 237 C 125.5 236.070312 125.132812 235.179688 124.476562 234.523438 C 123.820312 233.867188 122.929688 233.5 122 233.5 C 121.070312 233.5 120.179688 233.867188 119.523438 234.523438 C 118.867188 235.179688 118.5 236.070312 118.5 237 C 118.5 237.929688 118.867188 238.820312 119.523438 239.476562 C 120.179688 240.132812 121.070312 240.5 122 240.5 C 122.929688 240.5 123.820312 240.132812 124.476562 239.476562 C 125.132812 238.820312 125.5 237.929688 125.5 237 Z "/>
<path style=" stroke:none;fill-rule:evenodd;fill:rgb(0%,0%,0%);fill-opacity:1;" d="M 240.5 122 C 240.5 121.070312 240.132812 120.179688 239.476562 119.523438 C 238.820312 118.867188 237.929688 118.5 237 118.5 C 236.070312 118.5 235.179688 118.867188 234.523438 119.523438 C 233.867188 120.179688 233.5 121.070312 233.5 122 C 233.5 122.929688 233.867188 123.820312 234.523438 124.476562 C 235.179688 125.132812 236.070312 125.5 237 125.5 C 237.929688 125.5 238.820312 125.132812 239.476562 124.476562 C 240.132812 123.820312 240.5 122.929688 240.5 122 Z "/>
<path style="fill:none;stroke-width:1.6;stroke-linecap:square;stroke-linejoin:miter;stroke:rgb(36.84082%,50.67749%,70.979309%);stroke-opacity:1;stroke-miterlimit:3.25;" d="M 81.179688 364.53125 L 81.601562 364.109375 L 82.027344 363.6875 L 82.871094 362.839844 L 84.5625 361.152344 L 87.945312 357.769531 L 95.277344 350.433594 L 122.917969 322.792969 L 130.285156 315.429688 L 137.515625 308.195312 L 144.261719 301.453125 L 151.574219 294.136719 L 158.402344 287.308594 L 165.097656 280.617188 L 172.359375 273.351562 L 179.136719 266.574219 L 186.484375 259.230469 L 200.421875 245.292969 L 207.714844 237.996094 L 214.523438 231.1875 L 221.902344 223.8125 L 229.144531 216.566406 L 235.902344 209.8125 L 243.226562 202.484375 L 250.070312 195.644531 L 256.773438 188.9375 L 264.050781 181.664062 L 270.839844 174.875 L 278.195312 167.515625 L 285.421875 160.292969 L 292.160156 153.554688 L 299.464844 146.246094 L 306.285156 139.425781 L 312.972656 132.742188 L 320.226562 125.484375 L 326.996094 118.714844 L 334.335938 111.378906 L 341.1875 104.523438 L 347.90625 97.804688 L 355.195312 90.519531 L 361.996094 83.71875 L 369.363281 76.347656 L 376.601562 69.113281 L 383.351562 62.363281 L 390.667969 55.042969 L 397.503906 48.210938 L 404.199219 41.511719 L 411.46875 34.246094 L 418.25 27.464844 L 418.367188 27.34375 L 420.140625 25.570312 L 422.035156 23.679688 L 422.152344 23.558594 L 423.925781 21.785156 L 424.046875 21.667969 L 424.164062 21.546875 L 424.402344 21.3125 L 424.992188 20.722656 L 425.109375 20.601562 L 425.347656 20.367188 L 425.464844 20.246094 L 425.582031 20.128906 L 425.703125 20.011719 L 425.820312 19.894531 " transform="matrix(1,0,0,1,-74,-13)"/>
</g>
</svg>
