<?xml version="1.0" encoding="UTF-8"?>
<svg xmlns="http://www.w3.org/2000/svg" xmlns:xlink="http://www.w3.org/1999/xlink" width="361pt" height="274pt" viewBox="0 0 361 274" version="1.1">
<g id="surface11">
<path style="fill-rule:nonzero;fill:rgb(99.998474%,99.998474%,99.998474%);fill-opacity:1;stroke-width:0.03;stroke-linecap:butt;stroke-linejoin:miter;stroke:rgb(99.998474%,99.998474%,99.998474%);stroke-opacity:1;stroke-miterlimit:10;" d="M 74 286 L 434 286 L 434 13 L 74 13 Z " transform="matrix(1,0,0,1,-74,-13)"/>
<path style=" stroke:none;fill-rule:evenodd;fill:rgb(0%,0%,0%);fill-opacity:1;" d="M 125.5 237 C 125.5 236.070312 125.132812 235.179688 124.476562 234.523438 C 123.820312 233.867188 122.929688 233.5 122 233.5 C 121.070312 233.5 120.179688 233.867188 119.523438 234.523438 C 118.867188 235.179688 118.5 236.070312 118.5 237 C 118.5 237.929688 118.867188 238.820312 119.523438 239.476562 C 120.179688 240.132812 121.070312 240.5 122 240.5 C 122.929688 240.5 123.820312 240.132812 124.476562 239.476562 C 125.132812 238.820312 125.5 237.929688 125.5 237 Z "/>
<path style=" stroke:none;fill-rule:evenodd;fill:rgb(0%,0%,0%);fill-opacity:1;" d="M 68.5 150 C 68.5 149.070312 68.132812 148.179688 67.476562 147.523438 C 66.820312 146.867188 65.929688 146.5 65 146.5 C 64.070312 146.5 63.179688 146.867188 62.523438 147.523438 C 61.867188 148.179688 61.5 149.070312 61.5 150 C 61.5 150.929688 61.867188 151.820312 62.523438 152.476562 C 63.179688 153.132812 64.070312 153.5 65 153.5 C 65.929688 153.5 66.820312 153.132812 67.476562 152.476562 C 68.132812 151.820312 68.5 150.929688 68.5 150 Z "/>
<path style=" stroke:none;fill-rule:evenodd;fill:rgb(0%,0%,0%);fill-opacity:1;" d="M 309.5 126 C 309.5 125.070312 309.132812 124.179688 308.476562 123.523438 C 307.820312 122.867188 306.929688 122.5 306 122.5 C 305.070312 122.5 304.179688 122.867188 303.523438 123.523438 C 302.867188 124.179688 302.5 125.070312 302.5 126 C 302.5 126.929688 302.867188 127.820312 303.523438 128.476562 C 304.179688 129.132812 305.070312 129.5 306 129.5 C 306.929688 129.5 307.820312 129.132812 308.476562 128.476562 C 309.132812 127.820312 309.5 126.929688 309.5 126 Z "/>
<path style="fill:none;stroke-width:1.6;stroke-linecap:square;stroke-linejoin:miter;stroke:rgb(36.84082%,50.67749%,70.979309%);stroke-opacity:1;stroke-miterlimit:3.25;" d="M 81.179688 19.894531 L 81.601562 21.160156 L 82.027344 22.421875 L 82.871094 24.941406 L 84.5625 29.941406 L 87.945312 39.789062 L 95.277344 60.457031 L 102.125 78.914062 L 108.839844 96.214844 L 116.121094 114.09375 L 122.917969 129.945312 L 130.285156 146.21875 L 137.515625 161.273438 L 144.261719 174.496094 L 151.574219 187.941406 L 158.402344 199.652344 L 165.097656 210.34375 L 172.359375 221.0625 L 179.136719 230.238281 L 186.484375 239.277344 L 193.695312 247.238281 L 200.421875 253.847656 L 207.714844 260.125 L 207.820312 260.210938 L 207.929688 260.292969 L 208.140625 260.464844 L 208.566406 260.796875 L 209.417969 261.457031 L 211.121094 262.738281 L 214.523438 265.148438 L 214.640625 265.226562 L 214.753906 265.304688 L 214.984375 265.460938 L 215.445312 265.765625 L 216.367188 266.371094 L 218.210938 267.535156 L 218.328125 267.605469 L 218.441406 267.675781 L 218.671875 267.816406 L 219.132812 268.09375 L 220.058594 268.636719 L 221.902344 269.679688 L 222.355469 269.929688 L 222.808594 270.171875 L 223.710938 270.648438 L 225.523438 271.558594 L 225.976562 271.777344 L 226.429688 271.992188 L 227.332031 272.414062 L 229.144531 273.210938 L 229.355469 273.296875 L 229.566406 273.386719 L 229.988281 273.5625 L 230.835938 273.902344 L 232.523438 274.542969 L 232.734375 274.621094 L 233.367188 274.84375 L 234.210938 275.132812 L 235.902344 275.675781 L 236.015625 275.710938 L 236.132812 275.746094 L 236.359375 275.816406 L 236.816406 275.949219 L 237.734375 276.207031 L 237.847656 276.242188 L 237.960938 276.269531 L 238.191406 276.332031 L 238.648438 276.453125 L 239.566406 276.683594 L 239.792969 276.738281 L 240.023438 276.792969 L 240.480469 276.898438 L 241.398438 277.097656 L 243.226562 277.453125 L 243.335938 277.472656 L 243.441406 277.492188 L 243.65625 277.527344 L 244.082031 277.601562 L 244.9375 277.734375 L 245.046875 277.75 L 245.152344 277.765625 L 245.367188 277.796875 L 245.792969 277.855469 L 246.648438 277.964844 L 246.753906 277.976562 L 246.863281 277.988281 L 247.074219 278.011719 L 247.503906 278.058594 L 247.609375 278.070312 L 247.71875 278.082031 L 247.929688 278.101562 L 248.359375 278.144531 L 248.464844 278.152344 L 248.574219 278.160156 L 248.785156 278.179688 L 249.214844 278.210938 L 249.320312 278.222656 L 249.425781 278.226562 L 249.640625 278.242188 L 250.070312 278.269531 L 250.171875 278.277344 L 250.277344 278.28125 L 250.488281 278.292969 L 250.59375 278.300781 L 250.699219 278.304688 L 250.90625 278.3125 L 251.011719 278.320312 L 251.117188 278.324219 L 251.324219 278.332031 L 251.746094 278.347656 L 251.851562 278.347656 L 251.953125 278.351562 L 252.058594 278.355469 L 252.164062 278.355469 L 252.375 278.363281 L 252.480469 278.363281 L 252.582031 278.367188 L 252.792969 278.367188 L 252.898438 278.371094 L 254.050781 278.371094 L 254.15625 278.367188 L 254.363281 278.367188 L 254.46875 278.363281 L 254.574219 278.363281 L 254.679688 278.359375 L 254.785156 278.359375 L 254.890625 278.355469 L 255.097656 278.351562 L 255.308594 278.34375 L 255.515625 278.335938 L 256.042969 278.316406 L 256.144531 278.3125 L 256.355469 278.300781 L 256.773438 278.28125 L 256.886719 278.273438 L 257.003906 278.265625 L 257.910156 278.203125 L 258.140625 278.183594 L 258.59375 278.148438 L 258.820312 278.125 L 259.046875 278.105469 L 259.503906 278.058594 L 260.414062 277.957031 L 260.527344 277.941406 L 260.640625 277.929688 L 260.867188 277.898438 L 261.320312 277.839844 L 262.230469 277.710938 L 262.34375 277.691406 L 262.457031 277.675781 L 262.6875 277.636719 L 263.140625 277.5625 L 264.050781 277.402344 L 264.472656 277.324219 L 264.898438 277.242188 L 265.746094 277.066406 L 265.851562 277.042969 L 265.960938 277.023438 L 266.171875 276.976562 L 266.59375 276.878906 L 267.445312 276.679688 L 267.550781 276.65625 L 267.867188 276.574219 L 268.292969 276.46875 L 269.140625 276.242188 L 270.839844 275.753906 L 270.953125 275.722656 L 271.070312 275.6875 L 271.296875 275.613281 L 271.757812 275.472656 L 272.679688 275.171875 L 274.519531 274.527344 L 274.746094 274.441406 L 275.4375 274.183594 L 276.355469 273.824219 L 278.195312 273.0625 L 278.308594 273.015625 L 278.421875 272.964844 L 278.648438 272.867188 L 279.101562 272.667969 L 280.003906 272.257812 L 281.808594 271.398438 L 285.421875 269.503906 L 285.632812 269.386719 L 285.839844 269.269531 L 287.105469 268.542969 L 288.789062 267.53125 L 292.160156 265.363281 L 292.273438 265.285156 L 292.386719 265.210938 L 292.613281 265.054688 L 293.070312 264.742188 L 293.984375 264.105469 L 295.8125 262.789062 L 299.464844 259.980469 L 306.285156 254.117188 L 312.972656 247.585938 L 320.226562 239.613281 L 326.996094 231.351562 L 334.335938 221.492188 L 341.1875 211.441406 L 347.90625 200.792969 L 355.195312 188.351562 L 361.996094 175.910156 L 369.363281 161.515625 L 376.601562 146.464844 L 383.351562 131.601562 L 390.667969 114.589844 L 397.503906 97.867188 L 404.199219 80.683594 L 411.46875 61.15625 L 418.25 42.105469 L 418.484375 41.425781 L 418.722656 40.746094 L 419.195312 39.382812 L 420.140625 36.644531 L 422.035156 31.125 L 422.269531 30.429688 L 422.507812 29.734375 L 422.980469 28.339844 L 423.925781 25.539062 L 424.046875 25.1875 L 424.164062 24.835938 L 424.402344 24.132812 L 424.875 22.722656 L 424.992188 22.371094 L 425.109375 22.015625 L 425.347656 21.308594 L 425.464844 20.957031 L 425.582031 20.601562 L 425.703125 20.246094 L 425.820312 19.894531 " transform="matrix(1,0,0,1,-74,-13)"/>
</g>
</svg>
