<?xml version="1.0" encoding="UTF-8"?>
<svg xmlns="http://www.w3.org/2000/svg" xmlns:xlink="http://www.w3.org/1999/xlink" width="263pt" height="433pt" viewBox="0 0 263 433" version="1.1">
<defs>
<clipPath id="clip1">
  <path d="M 0 0 L 262 0 L 262 432 L 0 432 Z "/>
</clipPath>
</defs>
<g id="surface18">
<path style="fill-rule:nonzero;fill:rgb(99.998474%,99.998474%,99.998474%);fill-opacity:1;stroke-width:0.03;stroke-linecap:butt;stroke-linejoin:miter;stroke:rgb(99.998474%,99.998474%,99.998474%);stroke-opacity:1;stroke-miterlimit:10;" d="M 74 445 L 336 445 L 336 13 L 74 13 Z " transform="matrix(1,0,0,1,-74,-13)"/>
<path style=" stroke:none;fill-rule:evenodd;fill:rgb(0%,0%,0%);fill-opacity:1;" d="M 14.5 126 C 14.5 125.070312 14.132812 124.179688 13.476562 123.523438 C 12.820312 122.867188 11.929688 122.5 11 122.5 C 10.070312 122.5 9.179688 122.867188 8.523438 123.523438 C 7.867188 124.179688 7.5 125.070312 7.5 126 C 7.5 126.929688 7.867188 127.820312 8.523438 128.476562 C 9.179688 129.132812 10.070312 129.5 11 129.5 C 11.929688 129.5 12.820312 129.132812 13.476562 128.476562 C 14.132812 127.820312 14.5 126.929688 14.5 126 Z "/>
<path style=" stroke:none;fill-rule:evenodd;fill:rgb(0%,0%,0%);fill-opacity:1;" d="M 74.5 364 C 74.5 363.070312 74.132812 362.179688 73.476562 361.523438 C 72.820312 360.867188 71.929688 360.5 71 360.5 C 70.070312 360.5 69.179688 360.867188 68.523438 361.523438 C 67.867188 362.179688 67.5 363.070312 67.5 364 C 67.5 364.929688 67.867188 365.820312 68.523438 366.476562 C 69.179688 367.132812 70.070312 367.5 71 367.5 C 71.929688 367.5 72.820312 367.132812 73.476562 366.476562 C 74.132812 365.820312 74.5 364.929688 74.5 364 Z "/>
<path style=" stroke:none;fill-rule:evenodd;fill:rgb(0%,0%,0%);fill-opacity:1;" d="M 133.5 186 C 133.5 185.070312 133.132812 184.179688 132.476562 183.523438 C 131.820312 182.867188 130.929688 182.5 130 182.5 C 129.070312 182.5 128.179688 182.867188 127.523438 183.523438 C 126.867188 184.179688 126.5 185.070312 126.5 186 C 126.5 186.929688 126.867188 187.820312 127.523438 188.476562 C 128.179688 189.132812 129.070312 189.5 130 189.5 C 130.929688 189.5 131.820312 189.132812 132.476562 188.476562 C 133.132812 187.820312 133.5 186.929688 133.5 186 Z "/>
<path style=" stroke:none;fill-rule:evenodd;fill:rgb(0%,0%,0%);fill-opacity:1;" d="M 193.5 364 C 193.5 363.070312 193.132812 362.179688 192.476562 361.523438 C 191.820312 360.867188 190.929688 360.5 190 360.5 C 189.070312 360.5 188.179688 360.867188 187.523438 361.523438 C 186.867188 362.179688 186.5 363.070312 186.5 364 C 186.5 364.929688 186.867188 365.820312 187.523438 366.476562 C 188.179688 367.132812 189.070312 367.5 190 367.5 C 190.929688 367.5 191.820312 367.132812 192.476562 366.476562 C 193.132812 365.820312 193.5 364.929688 193.5 364 Z "/>
<path style=" stroke:none;fill-rule:evenodd;fill:rgb(0%,0%,0%);fill-opacity:1;" d="M 252.5 186 C 252.5 185.070312 252.132812 184.179688 251.476562 183.523438 C 250.820312 182.867188 249.929688 182.5 249 182.5 C 248.070312 182.5 247.179688 182.867188 246.523438 183.523438 C 245.867188 184.179688 245.5 185.070312 245.5 186 C 245.5 186.929688 245.867188 187.820312 246.523438 188.476562 C 247.179688 189.132812 248.070312 189.5 249 189.5 C 249.929688 189.5 250.820312 189.132812 251.476562 188.476562 C 252.132812 187.820312 252.5 186.929688 252.5 186 Z "/>
<g clip-path="url(#clip1)" clip-rule="nonzero">
<path style="fill:none;stroke-width:1.6;stroke-linecap:square;stroke-linejoin:miter;stroke:rgb(36.84082%,50.67749%,70.979309%);stroke-opacity:1;stroke-miterlimit:3.25;" d="M 79.214844 18.003906 L 79.289062 19.738281 L 79.367188 21.46875 L 79.519531 24.914062 L 79.828125 31.75 L 80.441406 45.191406 L 81.667969 71.1875 L 84.125 119.71875 L 84.207031 121.285156 L 84.292969 122.847656 L 84.457031 125.953125 L 84.789062 132.101562 L 85.457031 144.160156 L 86.789062 167.332031 L 89.449219 210 L 89.605469 212.34375 L 89.761719 214.667969 L 90.070312 219.277344 L 90.691406 228.300781 L 91.9375 245.605469 L 92.011719 246.65625 L 92.089844 247.699219 L 92.246094 249.78125 L 92.558594 253.894531 L 93.179688 261.945312 L 94.421875 277.339844 L 94.496094 278.253906 L 94.574219 279.160156 L 94.726562 280.972656 L 95.03125 284.546875 L 95.640625 291.542969 L 96.859375 304.886719 L 96.933594 305.691406 L 97.011719 306.492188 L 97.164062 308.089844 L 97.46875 311.242188 L 98.078125 317.394531 L 99.296875 329.09375 L 99.460938 330.617188 L 99.625 332.128906 L 99.957031 335.105469 L 100.617188 340.890625 L 101.941406 351.789062 L 102.023438 352.441406 L 102.105469 353.089844 L 102.269531 354.375 L 102.601562 356.910156 L 103.261719 361.816406 L 104.582031 371 L 104.660156 371.511719 L 104.738281 372.019531 L 104.890625 373.023438 L 105.199219 375.003906 L 105.816406 378.835938 L 107.050781 385.984375 L 107.128906 386.410156 L 107.207031 386.832031 L 107.359375 387.667969 L 107.667969 389.308594 L 108.285156 392.46875 L 109.519531 398.304688 L 109.601562 398.679688 L 109.6875 399.046875 L 109.851562 399.78125 L 110.1875 401.207031 L 110.855469 403.929688 L 110.9375 404.257812 L 111.023438 404.585938 L 111.191406 405.226562 L 111.523438 406.476562 L 112.191406 408.851562 L 112.277344 409.136719 L 112.359375 409.417969 L 112.527344 409.976562 L 112.859375 411.058594 L 113.53125 413.09375 L 113.613281 413.339844 L 113.695312 413.578125 L 113.863281 414.054688 L 114.199219 414.972656 L 114.867188 416.6875 L 115.03125 417.085938 L 115.195312 417.472656 L 115.523438 418.21875 L 116.179688 419.605469 L 116.261719 419.769531 L 116.34375 419.929688 L 116.507812 420.242188 L 116.835938 420.847656 L 117.492188 421.945312 L 117.65625 422.195312 L 117.820312 422.441406 L 118.148438 422.902344 L 118.230469 423.015625 L 118.476562 423.332031 L 118.804688 423.726562 L 118.96875 423.914062 L 119.132812 424.089844 L 119.460938 424.417969 L 119.542969 424.496094 L 119.625 424.570312 L 119.789062 424.714844 L 120.117188 424.980469 L 120.195312 425.035156 L 120.269531 425.09375 L 120.421875 425.199219 L 120.5 425.246094 L 120.574219 425.296875 L 120.730469 425.386719 L 120.804688 425.429688 L 120.882812 425.472656 L 121.035156 425.550781 L 121.113281 425.589844 L 121.1875 425.625 L 121.339844 425.6875 L 121.417969 425.71875 L 121.496094 425.746094 L 121.570312 425.773438 L 121.648438 425.796875 L 121.722656 425.820312 L 121.800781 425.84375 L 121.875 425.863281 L 121.953125 425.882812 L 122.03125 425.898438 L 122.105469 425.914062 L 122.183594 425.929688 L 122.257812 425.941406 L 122.335938 425.949219 L 122.414062 425.960938 L 122.488281 425.964844 L 122.566406 425.972656 L 122.640625 425.976562 L 122.71875 425.980469 L 122.871094 425.980469 L 122.949219 425.976562 L 123.023438 425.972656 L 123.101562 425.96875 L 123.179688 425.960938 L 123.253906 425.953125 L 123.332031 425.941406 L 123.40625 425.929688 L 123.484375 425.917969 L 123.558594 425.902344 L 123.714844 425.871094 L 123.789062 425.851562 L 123.867188 425.828125 L 123.941406 425.808594 L 124.097656 425.757812 L 124.171875 425.730469 L 124.25 425.703125 L 124.402344 425.640625 L 124.480469 425.609375 L 124.554688 425.574219 L 124.707031 425.503906 L 125.015625 425.339844 L 125.097656 425.292969 L 125.179688 425.242188 L 125.347656 425.136719 L 125.679688 424.90625 L 125.84375 424.78125 L 126.011719 424.648438 L 126.34375 424.367188 L 126.425781 424.292969 L 126.507812 424.214844 L 126.675781 424.058594 L 127.003906 423.722656 L 127.667969 422.980469 L 127.753906 422.882812 L 127.835938 422.78125 L 128 422.574219 L 128.332031 422.140625 L 128.996094 421.203125 L 129.082031 421.078125 L 129.164062 420.953125 L 129.328125 420.699219 L 129.660156 420.171875 L 130.324219 419.054688 L 130.480469 418.78125 L 130.636719 418.5 L 130.945312 417.929688 L 131.5625 416.730469 L 132.804688 414.121094 L 132.882812 413.949219 L 132.957031 413.773438 L 133.113281 413.425781 L 133.421875 412.714844 L 134.042969 411.238281 L 135.28125 408.101562 L 135.359375 407.902344 L 135.433594 407.699219 L 135.585938 407.296875 L 135.890625 406.476562 L 136.496094 404.792969 L 137.710938 401.269531 L 140.144531 393.632812 L 140.226562 393.363281 L 140.472656 392.542969 L 140.800781 391.441406 L 141.460938 389.195312 L 142.78125 384.574219 L 145.417969 374.835938 L 150.335938 355.320312 L 155.671875 332.96875 L 160.90625 310.707031 L 165.789062 290.375 L 171.085938 269.472656 L 176.03125 251.609375 L 176.113281 251.324219 L 176.199219 251.039062 L 176.363281 250.46875 L 176.699219 249.339844 L 177.367188 247.105469 L 178.707031 242.765625 L 181.386719 234.585938 L 181.714844 233.632812 L 182.042969 232.6875 L 182.703125 230.835938 L 184.015625 227.265625 L 184.097656 227.046875 L 184.179688 226.832031 L 184.34375 226.398438 L 184.671875 225.546875 L 185.332031 223.878906 L 186.644531 220.691406 L 186.800781 220.332031 L 186.953125 219.976562 L 187.257812 219.269531 L 187.871094 217.894531 L 189.097656 215.273438 L 189.175781 215.113281 L 189.253906 214.957031 L 189.40625 214.644531 L 189.710938 214.027344 L 190.324219 212.832031 L 191.550781 210.574219 L 191.636719 210.429688 L 191.71875 210.28125 L 191.882812 209.996094 L 192.21875 209.429688 L 192.882812 208.339844 L 193.046875 208.074219 L 193.214844 207.816406 L 193.546875 207.304688 L 194.210938 206.328125 L 194.292969 206.207031 L 194.378906 206.089844 L 194.542969 205.859375 L 194.875 205.40625 L 195.542969 204.539062 L 196.871094 202.984375 L 196.949219 202.902344 L 197.027344 202.816406 L 197.183594 202.65625 L 197.492188 202.335938 L 198.113281 201.742188 L 198.269531 201.601562 L 198.421875 201.460938 L 198.734375 201.195312 L 199.355469 200.703125 L 199.511719 200.585938 L 199.664062 200.476562 L 199.976562 200.261719 L 200.054688 200.207031 L 200.128906 200.15625 L 200.285156 200.058594 L 200.675781 199.824219 L 200.75 199.78125 L 200.90625 199.691406 L 201.21875 199.53125 L 201.292969 199.492188 L 201.371094 199.453125 L 201.527344 199.378906 L 201.839844 199.242188 L 201.988281 199.179688 L 202.140625 199.121094 L 202.21875 199.09375 L 202.292969 199.066406 L 202.445312 199.011719 L 202.523438 198.988281 L 202.597656 198.960938 L 202.75 198.914062 L 203.054688 198.832031 L 203.132812 198.8125 L 203.207031 198.792969 L 203.359375 198.757812 L 203.4375 198.742188 L 203.511719 198.726562 L 203.664062 198.699219 L 203.738281 198.6875 L 203.816406 198.675781 L 203.890625 198.664062 L 203.96875 198.652344 L 204.042969 198.644531 L 204.121094 198.636719 L 204.195312 198.628906 L 204.273438 198.621094 L 204.347656 198.613281 L 204.425781 198.609375 L 204.5 198.601562 L 204.578125 198.597656 L 204.652344 198.59375 L 204.730469 198.59375 L 204.804688 198.589844 L 205.109375 198.589844 L 205.183594 198.59375 L 205.261719 198.597656 L 205.335938 198.601562 L 205.414062 198.605469 L 205.488281 198.609375 L 205.566406 198.617188 L 205.640625 198.621094 L 205.71875 198.628906 L 205.792969 198.636719 L 205.871094 198.648438 L 205.945312 198.65625 L 206.097656 198.679688 L 206.175781 198.691406 L 206.25 198.707031 L 206.402344 198.734375 L 206.480469 198.75 L 206.554688 198.765625 L 206.707031 198.800781 L 206.789062 198.820312 L 206.871094 198.84375 L 207.039062 198.886719 L 207.121094 198.910156 L 207.203125 198.9375 L 207.367188 198.988281 L 207.53125 199.042969 L 207.699219 199.105469 L 208.027344 199.234375 L 208.191406 199.304688 L 208.359375 199.378906 L 208.6875 199.539062 L 208.851562 199.625 L 209.019531 199.714844 L 209.347656 199.90625 L 209.429688 199.953125 L 209.511719 200.003906 L 209.679688 200.109375 L 210.007812 200.328125 L 210.667969 200.8125 L 210.75 200.875 L 210.832031 200.941406 L 211 201.074219 L 211.328125 201.351562 L 211.988281 201.949219 L 212.144531 202.097656 L 212.296875 202.25 L 212.605469 202.5625 L 213.222656 203.222656 L 213.296875 203.308594 L 213.375 203.398438 L 213.53125 203.574219 L 213.835938 203.9375 L 214.453125 204.699219 L 214.609375 204.894531 L 214.761719 205.097656 L 215.070312 205.507812 L 215.6875 206.371094 L 216.917969 208.242188 L 217.003906 208.375 L 217.085938 208.507812 L 217.253906 208.78125 L 217.585938 209.335938 L 218.253906 210.488281 L 219.589844 212.957031 L 219.671875 213.121094 L 219.757812 213.28125 L 219.921875 213.609375 L 220.257812 214.277344 L 220.925781 215.648438 L 222.261719 218.558594 L 222.34375 218.746094 L 222.425781 218.929688 L 222.589844 219.304688 L 222.917969 220.066406 L 223.574219 221.621094 L 224.882812 224.886719 L 227.507812 231.992188 L 227.582031 232.210938 L 227.660156 232.429688 L 227.8125 232.871094 L 228.117188 233.757812 L 228.730469 235.5625 L 229.953125 239.289062 L 232.398438 247.183594 L 237.703125 266.152344 L 242.65625 285.761719 L 247.511719 306.269531 L 252.777344 329.34375 L 257.695312 350.972656 L 263.023438 373.707031 L 267.996094 393.417969 L 268.074219 393.703125 L 268.148438 393.988281 L 268.300781 394.558594 L 268.605469 395.691406 L 269.214844 397.925781 L 270.4375 402.277344 L 272.875 410.460938 L 272.957031 410.726562 L 273.039062 410.988281 L 273.207031 411.511719 L 273.535156 412.550781 L 274.199219 414.578125 L 275.519531 418.445312 L 275.601562 418.675781 L 275.6875 418.910156 L 275.851562 419.371094 L 276.183594 420.277344 L 276.84375 422.042969 L 278.164062 425.351562 L 278.320312 425.71875 L 278.472656 426.078125 L 278.78125 426.789062 L 279.398438 428.160156 L 279.476562 428.328125 L 279.554688 428.492188 L 279.707031 428.820312 L 280.019531 429.460938 L 280.636719 430.6875 L 280.710938 430.835938 L 280.789062 430.980469 L 280.945312 431.273438 L 281.253906 431.839844 L 281.871094 432.910156 L 281.945312 433.039062 L 282.023438 433.167969 L 282.179688 433.417969 L 282.488281 433.90625 L 283.105469 434.816406 L 283.269531 435.050781 L 283.4375 435.277344 L 283.773438 435.710938 L 283.855469 435.816406 L 283.941406 435.917969 L 284.105469 436.121094 L 284.441406 436.503906 L 284.523438 436.597656 L 284.609375 436.6875 L 284.777344 436.863281 L 285.109375 437.191406 L 285.195312 437.269531 L 285.277344 437.347656 L 285.445312 437.496094 L 285.78125 437.773438 L 285.863281 437.839844 L 285.945312 437.902344 L 286.113281 438.023438 L 286.199219 438.082031 L 286.28125 438.140625 L 286.449219 438.246094 L 286.53125 438.296875 L 286.617188 438.347656 L 286.78125 438.441406 L 286.867188 438.484375 L 286.949219 438.527344 L 287.117188 438.605469 L 287.199219 438.644531 L 287.285156 438.679688 L 287.367188 438.710938 L 287.453125 438.742188 L 287.535156 438.773438 L 287.617188 438.800781 L 287.785156 438.851562 L 287.871094 438.875 L 288.035156 438.914062 L 288.121094 438.929688 L 288.203125 438.945312 L 288.289062 438.957031 L 288.371094 438.96875 L 288.457031 438.976562 L 288.539062 438.984375 L 288.785156 438.996094 L 288.867188 438.996094 L 289.113281 438.984375 L 289.195312 438.976562 L 289.277344 438.964844 L 289.359375 438.957031 L 289.605469 438.910156 L 289.769531 438.871094 L 289.933594 438.824219 L 290.097656 438.769531 L 290.179688 438.738281 L 290.507812 438.597656 L 290.753906 438.46875 L 290.917969 438.375 L 291.082031 438.273438 L 291.246094 438.164062 L 291.410156 438.042969 L 291.738281 437.785156 L 291.820312 437.714844 L 292.066406 437.492188 L 292.394531 437.164062 L 292.476562 437.078125 L 292.558594 436.988281 L 292.722656 436.804688 L 293.050781 436.410156 L 293.707031 435.519531 L 293.863281 435.292969 L 294.015625 435.054688 L 294.320312 434.5625 L 294.933594 433.480469 L 295.011719 433.339844 L 295.085938 433.191406 L 295.242188 432.894531 L 295.546875 432.273438 L 296.160156 430.9375 L 296.234375 430.761719 L 296.3125 430.585938 L 296.464844 430.222656 L 296.773438 429.472656 L 297.382812 427.871094 L 298.609375 424.257812 L 298.691406 423.992188 L 298.777344 423.726562 L 298.941406 423.183594 L 299.273438 422.0625 L 299.9375 419.703125 L 300.019531 419.394531 L 300.105469 419.082031 L 300.269531 418.457031 L 300.601562 417.164062 L 301.265625 414.453125 L 301.351562 414.101562 L 301.433594 413.75 L 301.597656 413.03125 L 301.929688 411.5625 L 302.59375 408.492188 L 303.921875 401.78125 L 304 401.367188 L 304.078125 400.949219 L 304.234375 400.109375 L 304.542969 398.390625 L 305.164062 394.824219 L 306.40625 387.175781 L 306.480469 386.671875 L 306.558594 386.167969 L 306.714844 385.152344 L 307.023438 383.082031 L 307.644531 378.808594 L 308.886719 369.699219 L 308.960938 369.117188 L 309.035156 368.53125 L 309.1875 367.355469 L 309.492188 364.960938 L 310.101562 360.03125 L 311.316406 349.609375 L 311.394531 348.933594 L 311.46875 348.253906 L 311.621094 346.882812 L 311.925781 344.109375 L 312.53125 338.410156 L 313.75 326.410156 L 313.832031 325.566406 L 313.914062 324.71875 L 314.078125 323.015625 L 314.40625 319.558594 L 315.066406 312.457031 L 316.386719 297.511719 L 319.023438 264.496094 L 319.179688 262.441406 L 319.332031 260.367188 L 319.640625 256.179688 L 320.257812 247.621094 L 321.488281 229.769531 L 323.949219 191.042969 L 324.035156 189.617188 L 324.121094 188.1875 L 324.292969 185.3125 L 324.636719 179.496094 L 325.324219 167.617188 L 326.699219 142.84375 L 326.785156 141.25 L 326.867188 139.652344 L 327.039062 136.4375 L 327.382812 129.941406 L 328.070312 116.6875 L 328.15625 115.007812 L 328.242188 113.320312 L 328.414062 109.929688 L 328.757812 103.078125 L 328.84375 101.355469 L 328.929688 99.621094 L 329.101562 96.140625 L 329.1875 94.394531 L 329.359375 90.878906 L 329.445312 89.113281 " transform="matrix(1,0,0,1,-74,-13)"/>
</g>
</g>
</svg>
